<?xml version="1.0" encoding="iso-8859-1"?>
<!-- Generator: Adobe Illustrator 19.0.0, SVG Export Plug-In . SVG Version: 6.00 Build 0)  -->
<svg xmlns="http://www.w3.org/2000/svg" xmlns:xlink="http://www.w3.org/1999/xlink" version="1.1" id="Layer_1" x="0px" y="0px" viewBox="0 0 270.499 270.499" style="enable-background:new 0 0 270.499 270.499;" xml:space="preserve" width="512px" height="512px">
<g>
	<g>
		<g>
			<path d="M269.652,169.09c-0.18-1.132-1.5-1.572-2.46-1.396c-14.904,2.692-29.808,5.384-44.712,8.076     c0.064-1.524,0.128-3.048,0.128-4.624c0-15.504-0.284-31.956-3.672-47.664c-0.068-0.324-0.232-0.596-0.428-0.832     c0.104-0.452,0.252-0.896,0.252-1.368c0-7.808-14.74-13.296-34.2-16.264l3.468-9.192v0.004l8.052-21.352l3.476-9.22l7.232-19.164     V46.09l3.34-8.86l1.2-3.188l3.184-8.436l-10.24-3.86l-0.012-0.004l-0.556,1.504l-3.284,8.704l-6.916,18.324v0.004l-3.46,9.18     l-8.12,21.528v0.004l-8.552,22.68c-7.992-0.776-16.36-1.224-24.656-1.224c-33.392,0-67.196,6.472-67.196,18.836     c0,0.332,0.12,0.644,0.168,0.968c-3.608,13.644-5.504,29.292-5.66,46.576c-4.252,3.804-8.332,8.464-9.728,15.092     c-5.1-27.18-6.072-57.076,13.16-78.532c1.1,0.66,2.452,1.196,4.048,1.196c2.268,0,4.98-1.056,7.976-4.288     c4.856-5.236,5.42-16.22,5.44-16.684c0.024-0.424-0.152-0.836-0.468-1.124c-0.32-0.284-0.752-0.408-1.168-0.344     c-0.476,0.076-11.776,1.92-16.616,7.132c-2.5,2.696-3.692,5.308-3.548,7.764c0.104,1.668,0.836,3.188,2.12,4.548     c-5.344,5.972-9.172,12.572-11.824,19.576c-1.54-9.508-9.516-16.72-9.868-17.028l-1.096-0.972l-0.932,1.132     c-0.28,0.34-6.908,8.512-5.696,18.484c0.312,2.552,1.112,4.94,2.124,7.1c-4.552-2.848-10.296-5.58-16.892-6.78     c-16.212-2.948-30.82,4.552-31.432,4.872L0,130.818l1.236,1.36c0.388,0.428,8.168,8.848,20.028,13.396     c0.016,0.024,0,0.056,0.016,0.08c0.176,0.252,0.46,0.388,0.748,0.388c0.096,0,0.188-0.056,0.28-0.088     c2.148,0.764,4.404,1.416,6.788,1.848c2.648,0.48,5.248,0.68,7.756,0.68c12.84,0,23.16-5.284,23.676-5.552l0.36-0.188     c-1.416,13.548,0.056,27.752,2.58,41.356c-6.568-1.408-12.676,0.248-18.844,2.288c-3.292,1.088-4.5,3.128-3.8,6.424     c1.82,8.56,4.22,16.56,12.984,20.536c-3.384,3.592-5.248,8.06-5.828,13.872c-0.2,1.984,1.76,4.616,3.444,5.304     c5.988,2.44,13.684,4.516,20.872-0.532c3.62,4.752,5.948,7.632,8.516,8.436c0.14,0.044,0.28,0.068,0.424,0.068     c0.144,0,0.284-0.02,0.424-0.068c2.572-0.808,4.9-3.688,8.52-8.436c5.244,3.68,10.752,3.556,15.672,2.28     c11.3,6.496,25.724,9.856,43.432,9.856c7.024,0,13.52-0.636,19.584-1.776c13.064,5.752,28.02,7.828,42.992,5.424     C248.808,240.374,275.68,207.27,269.652,169.09z M80.752,93.206c3.128-3.372,9.936-5.2,13.188-5.912     c-0.356,3.184-1.436,9.736-4.532,13.072c-3.468,3.748-6.576,4.36-9.496,1.892c-1.224-1.036-1.88-2.176-1.952-3.388     C77.856,97.218,78.8,95.31,80.752,93.206z M32.556,127.894c9.076,1.648,16.628,6.528,21.272,10.228     c0.544,0.7,1.052,1.328,1.536,1.876l-32.684-5.964h-0.004l-16.388-2.992C11.38,129.05,21.68,125.918,32.556,127.894z      M6.012,132.834l14.196,2.592l-5.46,3.784C10.972,136.958,7.98,134.582,6.012,132.834z M16.488,140.21l6.236-4.324l8.764,1.6     l-8.284,5.744C20.796,142.358,18.544,141.338,16.488,140.21z M34.688,145.574c-1.672-0.08-3.368-0.24-5.084-0.552     c-1.476-0.268-2.908-0.628-4.296-1.048l8.1-5.616c0.168-0.116,0.244-0.292,0.304-0.472l9.544,1.744L34.688,145.574z      M37.82,145.61l7.8-5.408c0.044-0.032,0.044-0.088,0.08-0.124l10.072,1.836C51.964,143.394,45.368,145.426,37.82,145.61z      M61.108,140.934l-0.076-0.084c0.036-0.056,0.076-0.12,0.116-0.176C61.136,140.762,61.12,140.846,61.108,140.934z M58.972,138.79     c-0.812-0.764-1.864-1.692-3.14-2.724c-2.208-2.92-4.628-7.028-5.188-11.628c-0.804-6.632,2.496-12.564,4.164-15.072     c2.248,2.336,7.144,8.128,7.968,14.916C63.532,130.486,60.704,136.042,58.972,138.79z M259.22,173.182     c0.804,2.496,0.156,9.02-0.024,11.48c-0.592,8.196-3.176,16.2-7.272,23.304c-9.064,15.708-24.716,25.596-42.252,29.168     c-15.372,2.42-31.268-0.068-44.412-8.736c-6.492-4.28-12.148-9.776-16.4-16.304c-1.928-2.956-3.484-6.076-4.788-9.356     c-0.216-0.536-2.428-5.904-3.268-8.176C180.272,187.438,219.744,180.31,259.22,173.182z M137.492,189.502     c-2.08-1.508-4.156-3.02-6.232-4.528c2.052-1.572,4.084-3.14,6.1-4.708c2.016,1.464,4.096,2.972,6.24,4.524     C141.584,186.362,139.544,187.926,137.492,189.502z M137.724,191.07c-0.184,0.032-0.364,0.064-0.548,0.1     c0.112-0.084,0.224-0.168,0.332-0.256C137.58,190.966,137.652,191.018,137.724,191.07z M143.532,223.338     c0.708,0.86,1.412,1.712,2.16,2.532c-1.904,1.452-3.736,2.836-5.512,4.16c-2.168-1.46-4.352-2.932-6.516-4.428     c2.068-1.512,4.168-3.076,6.296-4.684C141.132,221.726,142.336,222.534,143.532,223.338z M140.912,220.198     c0.028-0.02,0.052-0.04,0.08-0.06c0.06,0.084,0.132,0.16,0.196,0.248C141.096,220.322,141.004,220.262,140.912,220.198z      M163.08,130.966l2.172-0.12c3.46-0.192,6.116-0.26,8.648-0.216l0.996,0.016l6.276-16.64     c17.928,2.564,29.284,7.112,30.212,11.448c-8.072,5.304-30.44,10.668-62.664,10.668c-33.42,0-54.168-5.66-60.84-11.116     c2.424-6.388,27.048-13.084,61.676-13.084c7.296,0,14.092,0.324,20.38,0.856L163.08,130.966z M171.504,116.662     c0.972,2.392,1.944,4.788,2.932,7.176l-1.488,3.944c-1.752-0.016-3.572,0.032-5.684,0.124L171.504,116.662z M130.78,147.39     c2.072-1.552,4.116-3.136,6.176-4.712c2.016,1.572,4.016,3.164,6.052,4.704c-2.048,1.576-4.092,3.104-6.148,4.652     C134.832,150.49,132.784,148.97,130.78,147.39z M135.928,152.734c-5.732,4.304-11.44,8.492-17.076,12.548     c-2.064-1.536-4.112-3.108-6.176-4.668c5.644-4.044,11.38-8.216,17.14-12.512C131.828,149.682,133.896,151.182,135.928,152.734z      M143.944,148.11c5.564,4.176,11.192,8.24,16.9,12.156c-1.128,0.9-2.276,1.824-3.392,2.712c-0.848,0.676-1.74,1.384-2.62,2.084     c-5.756-3.984-11.432-8.088-17.028-12.32C139.856,151.194,141.904,149.682,143.944,148.11z M158.152,163.866     c1.208-0.96,2.444-1.956,3.664-2.928c2.148,1.468,4.344,2.832,6.512,4.264c-1.856,1.488-3.764,3.032-5.56,4.46     c-0.18,0.144-0.376,0.296-0.556,0.44c-2.152-1.432-4.276-2.904-6.404-4.372C156.596,165.106,157.396,164.47,158.152,163.866z      M162.74,160.202c5.656-4.516,11.404-9.18,17.16-13.984c2.088,1.484,4.176,2.904,6.264,4.344     c-5.76,4.868-11.408,9.472-16.904,13.888C167.092,163.022,164.892,161.666,162.74,160.202z M187.14,151.238     c5.936,4.072,11.856,7.952,17.752,11.636c-4.352,4.664-9.116,9.424-14.684,14.6c-6.724-3.936-13.372-8.064-19.952-12.372     C175.752,160.686,181.388,156.102,187.14,151.238z M187.052,149.798c-2.084-1.436-4.168-2.848-6.256-4.328     c1.956-1.636,3.904-3.284,5.848-4.952c2.072,1.456,4.136,2.888,6.188,4.288C190.904,146.486,188.98,148.162,187.052,149.798z      M186.572,139.078c-0.704-0.496-1.408-0.996-2.116-1.5c1.628-0.248,3.208-0.516,4.764-0.8     C188.34,137.546,187.46,138.314,186.572,139.078z M185.692,139.842c-1.944,1.664-3.888,3.304-5.84,4.94     c-2.624-1.868-5.24-3.776-7.86-5.712c3.72-0.336,7.336-0.756,10.832-1.256C183.784,138.498,184.736,139.166,185.692,139.842z      M178.944,145.538c-5.76,4.8-11.516,9.464-17.168,13.984c-5.708-3.912-11.344-7.968-16.912-12.14     c3.112-2.408,6.188-4.86,9.244-7.328c5.448-0.112,10.884-0.396,16.184-0.84C173.172,141.354,176.056,143.478,178.944,145.538z      M143.932,146.658c-2.036-1.532-4.028-3.124-6.04-4.692c0.868-0.664,1.74-1.324,2.6-1.996c2.736,0.088,5.48,0.148,8.232,0.148     c1.184,0,2.372-0.028,3.56-0.044C149.516,142.29,146.736,144.49,143.932,146.658z M136.964,141.246     c-0.644-0.504-1.296-0.996-1.936-1.504c1.224,0.064,2.452,0.116,3.684,0.164C138.128,140.354,137.544,140.798,136.964,141.246z      M136.028,141.962c-2.056,1.572-4.092,3.144-6.16,4.688c-3.42-2.7-6.796-5.46-10.144-8.248c4.272,0.532,8.728,0.932,13.288,1.216     C134.008,140.41,135.028,141.174,136.028,141.962z M128.908,147.358c-5.772,4.304-11.524,8.484-17.176,12.532     c-6.452-4.9-12.864-9.9-19.084-15.032c4.2-2.624,8.756-5.56,13.52-8.716c3.588,0.776,7.428,1.444,11.476,1.992     C121.364,141.258,125.104,144.35,128.908,147.358z M117.888,165.978c-2.132,1.532-4.216,3.028-6.308,4.52     c-2.06-1.54-4.12-3.108-6.184-4.68c2.088-1.484,4.18-2.98,6.316-4.512C113.776,162.87,115.828,164.442,117.888,165.978z      M123.82,180.97c1.84,1.344,3.696,2.684,5.54,4.028c-2.508,1.916-5.032,3.816-7.556,5.696c-0.168-2.068-1.448-3.46-3.952-4.292     c-6.984-2.312-13.892-4.148-21.468-1.58c-0.112-0.676-0.292-1.304-0.46-1.94c0.044-0.032,0.092-0.06,0.136-0.092     c1.184-0.78,2.368-1.564,3.54-2.392l3.28-2.328c2.812-1.992,5.76-4.092,8.68-6.168     C115.684,174.986,119.788,178.022,123.82,180.97z M124.492,180.054c-3.936-2.88-7.94-5.836-11.964-8.84     c2.096-1.492,4.184-2.996,6.32-4.528c3.356,2.496,6.708,4.976,10.012,7.392c2.412,1.764,4.944,3.608,7.544,5.496     c-2.016,1.564-4.048,3.136-6.1,4.704C128.368,182.87,126.424,181.466,124.492,180.054z M129.532,173.162     c-3.208-2.344-6.464-4.756-9.72-7.176c5.632-4.052,11.332-8.244,17.06-12.548c5.6,4.244,11.276,8.36,17.04,12.352     c-5.136,4.08-10.744,8.524-16.576,13.056C134.644,176.894,132.024,174.986,129.532,173.162z M154.888,166.462     c2.128,1.468,4.248,2.948,6.396,4.376c-5.348,4.256-10.968,8.704-16.756,13.224c-2.144-1.552-4.22-3.056-6.236-4.52     C144.136,174.994,149.756,170.546,154.888,166.462z M162.264,171.51c6.14,4.068,12.348,8,18.636,11.768     c-9.988,1.804-19.98,3.608-29.968,5.412c-1.86-1.34-3.684-2.656-5.452-3.936C151.276,180.222,156.912,175.766,162.264,171.51z      M163.196,170.766c0.092-0.072,0.188-0.148,0.28-0.22c1.888-1.504,3.896-3.128,5.848-4.696c6.596,4.324,13.26,8.476,20,12.428     c-1.528,1.412-3.104,2.852-4.752,4.332c-0.672,0.12-1.344,0.244-2.016,0.364C176.016,179.082,169.572,174.986,163.196,170.766z      M190.332,178.882c1.156,0.676,2.296,1.4,3.456,2.064c-2.368,0.428-4.732,0.856-7.1,1.28     C187.952,181.086,189.144,179.986,190.332,178.882z M191.216,178.07c5.536-5.156,10.32-9.928,14.66-14.588     c2.144,1.332,4.296,2.696,6.432,3.972c-3.472,3.764-7.308,7.656-12.192,12.352c-1.528,0.276-3.056,0.552-4.58,0.828     C194.084,179.81,192.66,178.91,191.216,178.07z M206.664,162.638c0.344-0.372,0.712-0.752,1.052-1.12     c1.356-1.488,2.668-2.988,3.952-4.476c1.704,1.052,3.408,2.12,5.116,3.144c0.416,0.248,0.84,0.496,1.26,0.744     c-1.536,1.816-3.16,3.716-4.848,5.576c-0.032,0.032-0.064,0.068-0.096,0.104c-0.04-0.024-0.076-0.044-0.116-0.068     C210.884,165.282,208.772,163.946,206.664,162.638z M206.88,160.754c-0.384,0.42-0.808,0.852-1.2,1.276     c-5.864-3.66-11.752-7.52-17.66-11.564c1.924-1.636,3.844-3.332,5.768-5.012c5.668,3.852,11.288,7.508,16.9,10.984     C209.452,157.878,208.184,159.322,206.88,160.754z M193.72,144.038c-2.056-1.4-4.12-2.828-6.196-4.284     c1.296-1.116,2.592-2.232,3.876-3.364c5.94-1.168,11.188-2.624,15.508-4.324C202.588,136.166,198.172,140.142,193.72,144.038z      M104.64,135.798c-4.54,2.996-8.888,5.796-12.896,8.292c-2.012-1.668-3.972-3.356-5.928-5.048     c2.916-1.796,6.06-3.788,9.396-5.944C98.028,134.106,101.196,135.006,104.64,135.798z M110.768,160.586     c-2.144,1.532-4.228,3.024-6.32,4.512c-6.58-5.032-13.104-10.232-19.472-15.56c2.088-1.236,4.324-2.6,6.676-4.056     C97.884,150.638,104.3,155.666,110.768,160.586z M110.612,171.186c-2.82,2.004-5.668,4.032-8.388,5.96l-3.28,2.328     c-1.1,0.78-2.212,1.512-3.32,2.248c-0.796-2.488-1.992-4.664-3.404-6.624c0.084-0.056,0.168-0.116,0.256-0.172     c0.732-0.488,1.46-0.976,2.184-1.488l3.288-2.328c2.1-1.488,4.308-3.06,6.48-4.6     C106.492,168.078,108.552,169.646,110.612,171.186z M97.224,187.61c0.008-0.008,0.004-0.02,0.012-0.028     c6.812-2.308,13.224-0.64,19.728,1.512c1.94,0.64,2.316,1.256,1.916,3.144c-1.804,8.48-4.06,15.744-12.6,18.996     c-0.016-0.004-0.02-0.02-0.036-0.02c-8.012-1.056-15.6-3.6-21.948-7.36c-0.256-0.152-0.692-0.408-0.848-0.628     c-0.052-0.068-0.116-0.192-0.12-0.512c-0.024-1.692,1.596-3.38,3.404-5.1L97.224,187.61z M117.24,206.002l0.024-0.016     c0.24-0.172,0.472-0.348,0.712-0.52c6.636,4.764,13.656,9.756,20.984,14.78c-2.124,1.604-4.22,3.164-6.288,4.672     c-6.368-4.412-12.772-8.952-19.436-13.736C114.832,209.582,116.148,207.834,117.24,206.002z M139.916,219.526     c-7.324-5.02-14.336-10.004-20.976-14.768c3.832-2.76,7.64-5.552,11.404-8.38c1.96,8.528,5.388,16.18,10.008,22.82     C140.204,219.31,140.06,219.414,139.916,219.526z M129.904,194.69c0.036,0.176,0.096,0.336,0.132,0.512     c-3.8,2.856-7.644,5.7-11.516,8.488c0.644-1.412,1.132-2.912,1.52-4.472c0.636-2.056,1.144-4.204,1.612-6.392     c0.048-0.232,0.016-0.416,0.048-0.636c2.88-2.14,5.764-4.312,8.624-6.5c2.076,1.512,4.152,3.02,6.232,4.528     c-0.604,0.464-1.208,0.928-1.816,1.392c-1.144,0.208-2.288,0.412-3.432,0.62C130.188,192.43,129.708,193.71,129.904,194.69z      M144.548,185.482c1.568,1.132,3.188,2.304,4.828,3.488c-3.372,0.608-6.74,1.216-10.112,1.828     c-0.272-0.196-0.544-0.396-0.816-0.592C140.508,188.614,142.532,187.054,144.548,185.482z M218.608,171.142     c0,1.824-0.068,3.592-0.152,5.348c-5.448,0.984-10.892,1.968-16.34,2.952c4.392-4.256,7.964-7.892,11.196-11.404     c1.788,1.064,3.544,2.068,5.3,3.072C218.608,171.118,218.608,171.134,218.608,171.142z M218.604,169.806     c-1.496-0.86-2.988-1.72-4.504-2.62c1.544-1.696,3.032-3.424,4.448-5.096C218.58,164.678,218.6,167.254,218.604,169.806z      M218.516,159.89c-0.384-0.228-0.772-0.452-1.152-0.68c-1.652-0.988-3.3-2.028-4.952-3.044c2.06-2.412,3.98-4.732,5.716-6.876     C218.324,152.834,218.452,156.374,218.516,159.89z M218.044,147.598c-1.96,2.436-4.188,5.144-6.608,7.972     c-5.564-3.448-11.136-7.068-16.756-10.88c5.14-4.504,10.244-9.108,15.192-13.884c2.328-1.108,4.244-2.312,5.704-3.612     C216.848,133.898,217.62,140.746,218.044,147.598z M214.76,121.282c0,0.86-0.536,1.772-1.48,2.696     c-2.448-5.756-15.112-9.852-31.284-12.156l1.144-3.028C203.232,111.794,214.76,117.09,214.76,121.282z M208.44,26.35l2.412,0.912     l-1.028,2.724c-0.62-1.28-1.252-2.556-1.896-3.828L208.44,26.35z M205.236,27.214c1.084,2.144,2.176,4.288,3.2,6.456     l-3.256,8.628c-0.968-2.256-1.98-4.524-3.068-6.808L205.236,27.214z M200.724,39.186c1.068,2.336,2.08,4.66,3.016,6.944     l-4.268,11.32c-0.968-2.408-1.936-4.812-2.912-7.212L200.724,39.186z M195.076,54.15c0.972,2.404,1.948,4.812,2.912,7.22     l-3.476,9.212l-2.908-7.24L195.076,54.15z M189.328,69.39l0.8-2.124l2.908,7.236l-5.076,13.464     c-0.96-2.364-1.952-4.716-2.972-7.06L189.328,69.39z M183.524,84.79c1.004,2.364,2.012,4.728,2.952,7.116l-3.524,9.34     c-0.884-2.46-1.812-4.956-2.812-7.484L183.524,84.79z M174.864,107.754c0.068,0.008,0.14,0.012,0.204,0.02     c0.068-0.324,0.104-0.64,0.152-0.96l0.812-2.148l2.62-6.94c0.984,2.584,1.912,5.136,2.76,7.62l-0.968,2.564l-4.544,12.044     c-0.98-2.392-1.956-4.784-2.924-7.184L174.864,107.754z M148.72,106.446c8.468,0,16.188,0.396,23.216,1.04l-1.172,3.104     c-6.904-0.592-14.084-0.944-21.204-0.944c-28.272,0-58.068,4.756-63.296,13.604c-0.196-0.292-0.392-0.58-0.504-0.864     c0.06-0.22,0.1-0.468,0.16-0.688c0.144-0.516,0.064-1.036-0.172-1.476C88.052,114.126,109.78,106.446,148.72,106.446z      M84.604,127.33c2.136,1.992,5.28,3.76,9.256,5.292c-3.176,2.048-6.168,3.936-8.948,5.648c-0.7-0.608-1.44-1.204-2.132-1.816     C83.308,133.322,83.92,130.286,84.604,127.33z M82.568,137.786c0.428,0.376,0.884,0.74,1.316,1.116     c-0.568,0.348-1.1,0.664-1.652,0.996C82.34,139.19,82.456,138.49,82.568,137.786z M82.004,141.366     c0.912-0.548,1.832-1.1,2.792-1.688c1.956,1.688,3.936,3.368,5.944,5.036c-2.364,1.464-4.6,2.82-6.692,4.056     c-0.892-0.748-1.804-1.48-2.684-2.236C81.556,144.786,81.768,143.066,82.004,141.366z M81.236,147.902     c0.584,0.496,1.184,0.984,1.772,1.48c-0.692,0.408-1.36,0.792-2.02,1.168C81.072,149.662,81.148,148.774,81.236,147.902z      M80.864,151.922c0.98-0.556,2.004-1.148,3.068-1.772c6.392,5.356,12.936,10.58,19.544,15.64     c-2.072,1.472-4.184,2.972-6.188,4.392L94,172.51c-0.716,0.508-1.436,0.988-2.16,1.472c-0.1,0.068-0.196,0.132-0.296,0.2     c-2.116-2.712-4.628-4.996-7.068-7.052c-0.992-0.84-1.916-1.384-2.824-1.668c-0.272-0.084-0.564-0.084-0.836,0     c-0.22,0.068-0.452,0.204-0.68,0.308C80.24,161.014,80.492,156.406,80.864,151.922z M68.676,186.91     c0.636-7.352,4.916-12.36,11.144-17.62c0.524-0.44,0.992-0.756,1.416-0.96c0.424,0.2,0.892,0.516,1.416,0.956     c5.528,4.672,9.508,9.156,10.78,15.248v0.008c0.16,0.764,0.292,1.544,0.364,2.364c0.02,0.228,0.096,0.444,0.212,0.632     l-8.844,8.428c-1.752,1.668-4.144,3.948-4.104,6.768c0.008,0.724,0.188,1.324,0.548,1.816c0.352,0.488,0.844,0.824,1.34,1.124     c0.044,0.12,0.024,0.252,0.108,0.356c4.376,5.284,5.58,10.924,3.396,15.668c-2.384-1.636-4.268-3.432-5.376-5.144     c-0.048-0.072-0.14-0.08-0.2-0.14c-0.056-0.06-0.064-0.148-0.136-0.196c-0.064-0.04-0.14-0.012-0.208-0.04     c-0.14-0.06-0.26-0.076-0.412-0.076c-0.152,0-0.272,0.02-0.412,0.076c-0.068,0.028-0.14-0.004-0.2,0.036     c-0.072,0.048-0.076,0.136-0.132,0.196c-0.06,0.06-0.152,0.064-0.204,0.14c-1.104,1.712-2.992,3.508-5.376,5.144     c-2.184-4.744-0.984-10.388,3.396-15.668c0.036-0.044,0.016-0.104,0.048-0.152c0.16-0.1,0.34-0.18,0.496-0.28     c0.512-0.332,1.048-0.704,1.412-1.256c0.32-0.484,0.48-1.056,0.492-1.764c0.036-2.772-2.136-5.028-3.724-6.672l-7.752-8.06     C68.44,187.606,68.644,187.286,68.676,186.91z M43.596,192.234c-0.404-1.884-0.024-2.5,1.916-3.144     c6.32-2.092,12.568-3.74,19.164-1.704c0.04,0.056,0.024,0.132,0.072,0.184l9.524,9.904c1.64,1.704,3.108,3.372,3.088,5.064     c-0.008,0.256-0.044,0.44-0.116,0.552c-0.136,0.204-0.508,0.444-0.752,0.6c-5.744,3.708-12.6,6.22-19.844,7.26     c-0.192,0.028-0.316,0.168-0.464,0.276C47.652,207.974,45.4,200.714,43.596,192.234z M109.98,229.91     c-8.408,3.428-14.14,3.128-19.172-0.988c-0.296-0.244-0.68-0.352-1.064-0.312c-0.384,0.044-0.732,0.244-0.964,0.552     c-3.264,4.292-5.692,7.484-7.548,8.404c-1.852-0.92-4.276-4.108-7.544-8.404c-0.236-0.308-0.584-0.504-0.964-0.552     c-0.056-0.004-0.108-0.008-0.164-0.008c-0.324,0-0.644,0.112-0.9,0.324c-5.024,4.112-10.752,4.416-19.172,0.988     c-0.776-0.316-1.744-1.892-1.696-2.396c0.588-5.932,2.66-10.248,6.512-13.588c0.26-0.228,0.38-0.544,0.428-0.876     c5.364-0.848,10.52-2.444,15.184-4.74c-2.976,5.344-3.252,10.956-0.528,15.596c0.152,0.264,0.412,0.456,0.708,0.528     c0.088,0.02,0.18,0.032,0.268,0.032c0.212,0,0.42-0.06,0.604-0.176c2.552-1.604,4.66-3.432,6.144-5.252     c1.484,1.82,3.596,3.644,6.144,5.252c0.184,0.116,0.396,0.176,0.604,0.176c0.088,0,0.18-0.012,0.268-0.032     c0.296-0.072,0.556-0.264,0.708-0.528c2.804-4.776,2.436-10.584-0.796-16.072c5.384,2.612,11.392,4.456,17.696,5.408     c0.076,0.26,0.204,0.5,0.416,0.68c3.852,3.336,5.92,7.656,6.512,13.592C111.72,228.022,110.756,229.594,109.98,229.91z      M110.888,232.598c0.052-0.02,0.112-0.04,0.164-0.064c1.684-0.688,3.64-3.324,3.44-5.3c-0.58-5.82-2.444-10.284-5.828-13.876     c1.164-0.528,2.204-1.136,3.156-1.8l0.204,0.144c6.756,4.848,13.232,9.448,19.676,13.916c-4.796,3.484-9.472,6.74-14.076,9.8     C115.264,234.594,113.028,233.646,110.888,232.598z M119.004,235.87c4.476-2.992,9.02-6.168,13.684-9.56     c2.168,1.5,4.356,2.976,6.524,4.44c-3.684,2.732-7.16,5.236-10.54,7.58C125.264,237.686,122.044,236.862,119.004,235.87z      M149.288,240.142c-6.888,0-13.212-0.528-19.048-1.528c3.196-2.232,6.492-4.616,9.972-7.2c4.336,2.916,8.728,5.768,13.168,8.56     C152.012,240.03,150.696,240.142,149.288,240.142z M155.372,239.898c-4.8-2.992-9.524-6.06-14.196-9.196     c1.712-1.276,3.48-2.616,5.308-4.012c3.372,3.572,7.12,6.736,11.172,9.488c0.364,0.256,0.72,0.508,1.088,0.752     c0.728,0.476,1.464,0.94,2.212,1.388c0.204,0.12,0.4,0.224,0.604,0.336c0.34,0.2,0.684,0.384,1.028,0.576     C160.248,239.526,157.848,239.754,155.372,239.898z M210.8,243.934c-34.284,5.5-68.3-13.852-76.492-48.196     c1.828-0.332,3.652-0.66,5.48-0.988c7.612,31.684,38.82,49.104,70.364,44.136c31.308-6.38,54.168-33.692,50.312-65.924     c1.84-0.332,3.68-0.664,5.516-0.996C270.536,207.25,244.8,237.106,210.8,243.934z" fill="#D80027"/>
			<path d="M199.28,228.278c0.108,0.168,2.576,3.9,8.16,3.9c0.392,0,0.8-0.02,1.22-0.06c6.436-0.596,8.836-6.064,8.936-6.296     l0.148-0.356l-16.796-39.34l-1.824,41.912L199.28,228.278z M202.416,194.178l13.348,31.264c-0.58,1.088-2.712,4.448-7.268,4.872     c-4.652,0.432-6.932-2.044-7.532-2.804L202.416,194.178z" fill="#D80027"/>
			<path d="M173.184,223.246c0.896,2.456,3.116,4.348,6.6,5.628c4.212,1.544,7.492,2.304,10.088,2.304     c1.704,0,3.108-0.328,4.284-0.976c1.904-1.044,3.116-2.88,3.712-5.608c0.748-3.44,1.4-33.748,1.424-35.036l0.056-2.524     l-25.592,29.744C173.684,216.898,171.976,219.938,173.184,223.246z M175.236,217.81l22.196-25.768     c-0.26,11.324-0.804,29.74-1.332,32.164c-0.476,2.188-1.396,3.628-2.808,4.408c-2.448,1.34-6.536,0.884-12.88-1.44     c-2.952-1.084-4.808-2.604-5.516-4.528C173.992,220.194,175.256,217.81,175.236,217.81z" fill="#D80027"/>
			<path d="M162.716,217.418c0.468,0.104,0.94,0.156,1.416,0.156c1.768,0,3.576-0.72,5.476-2.184     c2.96-2.272,24.656-26.252,25.58-27.276l1.78-1.968l-40.156,7.184c-0.148,0.056-3.624,1.408-4.968,4.94     c-0.952,2.512-0.576,5.428,1.12,8.668C156.384,213.454,159.392,216.686,162.716,217.418z M153.536,198.93     c1.024-2.72,3.8-3.856,3.76-3.86l34.76-6.204c-8.12,8.952-21.452,23.472-23.556,25.084c-1.968,1.508-3.732,2.068-5.4,1.696     c-2.72-0.596-5.428-3.636-8.532-9.552C153.132,203.346,152.784,200.934,153.536,198.93z" fill="#D80027"/>
			<path d="M218.176,220.494c1.552,2.324,3.348,3.584,5.5,3.864c0.296,0.036,0.6,0.056,0.908,0.056c3.176,0,6.924-2.06,11.988-6.548     c2.78-2.464,4.156-5.04,4.088-7.652c-0.084-3.52-2.784-5.724-3.048-5.912l-34.548-18.236l0.972,2.332     C204.536,189.59,216.22,217.566,218.176,220.494z M236.624,205.814c0.024,0.016,2.172,1.796,2.228,4.464     c0.044,2.048-1.128,4.144-3.48,6.232c-5.06,4.488-8.692,6.404-11.456,6.052c-1.6-0.208-2.984-1.212-4.228-3.076     c-1.38-2.064-8.616-19.012-12.996-29.456L236.624,205.814z" fill="#D80027"/>
			<path d="M241.244,202.25c1.172,0.336,2.248,0.504,3.244,0.504c1.484,0,2.776-0.38,3.912-1.14     c2.828-1.896,4.444-6.004,5.248-13.32c0.396-3.636-0.32-6.488-2.128-8.48c-2.548-2.808-6.276-2.792-6.592-2.764l-39.828,7.972     l2.376,1.18C208.696,186.818,237.652,201.218,241.244,202.25z M245.108,178.85c0.068,0,3.108,0.02,5.08,2.204     c1.432,1.588,1.988,3.964,1.652,7.052c-0.728,6.644-2.14,10.456-4.448,12.008c-1.42,0.952-3.264,1.08-5.644,0.396     c-2.548-0.736-20.264-9.38-31.092-14.744L245.108,178.85z" fill="#D80027"/>
		</g>
	</g>
</g>
<g>
</g>
<g>
</g>
<g>
</g>
<g>
</g>
<g>
</g>
<g>
</g>
<g>
</g>
<g>
</g>
<g>
</g>
<g>
</g>
<g>
</g>
<g>
</g>
<g>
</g>
<g>
</g>
<g>
</g>
</svg>
